<svg width="800" height="600" xmlns="http://www.w3.org/2000/svg">
 <!-- Created with Method Draw - http://github.com/duopixel/Method-Draw/ -->
 <g>
  <title>background</title>
  <rect fill="#fff" id="canvas_background" height="602" width="802" y="-1" x="-1"/>
  <g display="none" overflow="visible" y="0" x="0" height="100%" width="100%" id="canvasGrid">
   <rect fill="url(#gridpattern)" stroke-width="0" y="0" x="0" height="100%" width="100%"/>
  </g>
 </g>
 <g>
  <title>Layer 1</title>
  <text xml:space="preserve" text-anchor="start" font-family="'Courier New', Courier, monospace" font-size="47" id="svg_6" y="174.48334" x="221.5" stroke-width="3" stroke="#000" fill="#fc0000">Igor's Tools!</text>
  <path d="m220.5,186.48334c6,0 10,0 13,2c3,2 5.186,2.69255 7,4c1.14726,0.8269 3,1 5,1c1,0 2,-1 4,-3c1,-1 3,-2 4,-3c1,-1 3.22836,0.14806 6,-1c1.30655,-0.5412 4,-1 5,-1c2,0 5,0 6,1c1,1 3,1 3,1c1,-2 1.29291,-3.29289 2,-4c0.70709,-0.70711 1.02676,-0.22975 2,0c2.17624,0.51375 2.0979,2.82443 4,4c1.70129,1.05147 3,1 4,1c1,0 2,0 3,-1c2,-2 2.69345,-2.4588 4,-3c1.84775,-0.76537 3,0 5,0c1,0 1.69345,1.4588 3,2c1.84775,0.76537 3,0 4,-1c1,-1 2,-3 3,-3c0,0 1,0 2,0c1,0 1.07611,0.61731 2,1c1.30655,0.5412 2,1 3,1c1,0 2,0 2,0c1,0 2.07611,-0.38269 3,0c1.30655,0.5412 1,3 3,5c1,1 0.69345,1.4588 2,2c0.92389,0.38269 1,0 2,0c0,0 1,-1 2,-2c1,-1 2,-2 2,-2c1,-1 1,-1 2,-1c1,0 1,1 2,1c1,0 1.07611,0.38269 2,0c1.30655,-0.5412 0.85272,-3.1731 2,-4c1.814,-1.30745 4.186,-1.69255 6,-3c1.14728,-0.8269 3,-1 4,-1c1,0 2,0 3,0c1,0 3,0 4,0c2,0 3,0 5,0c1,0 2,0 2,0c1,0 1,0 2,0c1,0 2.02676,-0.22975 3,0c2.17624,0.51375 3,4 4,5c1,1 3.4588,1.69344 4,3c0.38269,0.92387 1,2 2,2c1,0 4,0 5,-2c1,-2 2.23462,-3.15224 3,-5c0.5412,-1.30656 2,-2 2,-2c1,0 2.07611,-0.38269 3,0c3.91968,1.62358 5,4 6,5c1,1 3,1 4,1c2,0 2.69345,-1.4588 4,-2c1.84775,-0.76537 4.29291,-0.70711 5,0c0.70709,0.70711 0.69345,2.4588 2,3c0.92389,0.38269 1.26929,-1.62291 7,-6c2.51309,-1.91948 9,-2 11,-2c2,0 4.30322,-0.23065 5,1c2.03146,3.58792 1.0979,8.82443 3,10c0.85065,0.52573 2,0 3,0c2,0 3,-1 5,-3c1,-1 2.29291,-3.29289 3,-4c0.70709,-0.70711 1,0 2,0c1,0 2.07611,0.38269 3,0c1.30655,-0.5412 3,-1 5,-1c1,0 4.07611,-0.38269 5,0c1.30655,0.5412 2,2 3,2c1,0 3,-1 4,-2c1,-1 2,-2 3,-2c0,0 1,2 2,4c1,2 2.48627,3.82375 3,6c0.22977,0.97325 1,2 2,2c1,0 2.07611,0.38269 3,0c1.30655,-0.5412 2,-1 3,-1c1,0 2,0 3,0c2,0 3.0535,0.4595 5,0c2.17624,-0.51375 2.69254,-3.186 4,-5c0.8269,-1.14726 2,-2 2,-3c0,0 1,0 2,0c1,0 1.87857,0.49345 5,1c1.97418,0.32036 3,1 4,1c0,0 1,0 2,0c2,0 3.513,-1.59399 5,-4c1.66254,-2.68999 1.69257,-5.186 3,-7c0.8269,-1.14726 2,-1 2,-1c1,0 1.85272,2.1731 3,3c1.81396,1.30745 3,2 4,2c2,0 3,0 4,0c1,0 2,-1 3,-1c1,0 1.77026,0.02675 2,1c0.51373,2.17625 0.61731,3.07613 1,4c0.5412,1.30656 2,1 3,1c1,0 3,0 4,0c1,0 2,-1 3,-1c2,0 3.41888,-0.58115 5,1c1.58112,1.58115 1.61731,2.07613 2,3c0.5412,1.30656 2,1 3,1c1,0 2,0 3,0c1,0 2,-1 2,-1c1,0 2,0 2,0c1,0 2,0 3,0c1,0 1.29291,-0.29289 2,-1c0.70709,-0.70711 2.4588,-0.69344 3,-2c0.38269,-0.92387 1,-2 2,-3c1,-1 1,-1 1,-1c0,0 0.23462,0.15224 1,2c0.5412,1.30656 1.29291,1.29289 2,2c0.70709,0.70711 1.4588,1.69344 2,3c0.38269,0.92387 1,1 2,1c1,0 2,0 2,0l1,0l0,0l1,0" id="svg_12" fill-opacity="null" stroke-opacity="null" stroke-width="1.5" stroke="#fc0000" fill="none"/>
  <path d="m218.5,147.48334c0,-1 0.13362,-7.19739 1,-9c2.77376,-5.77116 9.20526,-5.26491 13,-4c4.74342,1.58115 7.51929,5.5582 10,9c1.30745,1.814 1,3 2,3c1,0 1.71413,-3.21167 4,-6c1.7932,-2.18735 4.21167,-4.71413 7,-7c1.09366,-0.89659 3,-1 4,-1c1,0 1,0 2,0c0,0 0.82376,0.48625 3,1c1.9465,0.4595 4,0 6,0c1,0 3.64886,1.19577 6,5c2.62866,4.25325 4.71411,9.21167 7,12c2.68979,3.28101 5,5 7,5c3,0 5.31021,0.28101 8,-3c2.28589,-2.78833 4.85272,-5.1731 6,-6c1.814,-1.30745 3,-1 4,-1c1,0 2,0 2,0c1,0 0.3851,-2.37201 3,-6c1.65381,-2.29454 3.87857,-3.49345 7,-4c0.98709,-0.16019 2.13065,1.12872 3,4c1.04483,3.45085 2,4 4,6c1,1 3,1 7,1c3,0 6.31021,-1.71899 9,-5c2.28589,-2.78833 4.4588,-4.69344 5,-6c0.38269,-0.92387 0.29291,-1.70711 1,-1c0.70709,0.70711 1.4588,1.69344 2,3c0.38269,0.92387 2,2 3,2c2,0 5.05664,-1.91753 8,-4c4.0817,-2.88786 6.07611,-4.38269 7,-4c1.30655,0.5412 2.78986,4.07843 4,7c0.85571,2.06586 1.85272,3.1731 3,4c1.814,1.30745 4.186,1.69255 6,3c1.14728,0.8269 2,1 3,1c0,0 1.07611,0.38269 2,0c1.30655,-0.5412 1.69345,-2.4588 3,-3c1.84775,-0.76537 2.61731,0.07613 3,1c0.5412,1.30656 1,1 2,2c1,1 3,1 6,2c0,0 2.81918,-3.15045 12,-14c6.86664,-8.11475 13.93796,-12.49829 20,-13c4.98297,-0.4124 8.46552,3.83809 10,9c1.45294,4.88763 2.4588,7.69344 3,9c0.38269,0.92387 0.15225,2.76537 2,2c2.61313,-1.0824 3.82376,-2.48625 6,-3c0.97324,-0.22975 2.29291,-0.70711 3,0c0.70709,0.70711 0,2 0,2c0,1 1.96384,2.11586 5,3c3.95868,1.15277 9,2 14,2c3,0 6,-5 10,-9c4,-4 5.59311,-7.47554 14,-9c2.95187,-0.53527 5.84723,2.04132 7,6c0.88412,3.03616 2,6 2,7c0,0 1.01291,0.16019 2,0c3.12146,-0.50655 5,-2 7,-2c3,0 4.45331,-1.26797 6,0c3.9433,3.23273 4,10 6,11c2,1 6.22217,2.5112 9,1c5.62463,-3.05995 7.75714,-6.98692 14,-8c2.96124,-0.48055 5,1 7,4c2,3 3,4 3,4c1,-1 3.38507,-5.37201 6,-9c2.48071,-3.4418 3.29291,-5.29289 4,-6c0.70709,-0.70711 1,1 1,4c0,2 1,4 2,5c1,1 2.1731,2.85274 3,4c1.30743,1.814 2.48627,3.82375 3,6c0.91901,3.89299 0,5 0,5c1,1 2,2 3,2c2,0 4,0 4,0c1,0 2,0 2,0c0,-1 0.77026,-1.02675 1,-2c0.51373,-2.17625 1.4588,-2.69344 2,-4c0.76538,-1.84776 0,-2 0,-2l0,-1l0,-1l0,0" id="svg_13" fill-opacity="null" stroke-opacity="null" stroke-width="1.5" stroke="#fc0000" fill="none"/>
 </g>
</svg>